<svg xmlns="http://www.w3.org/2000/svg" width="960" height="552.313" viewBox="0 0 960 552.313" xmlns:xlink="http://www.w3.org/1999/xlink" role="img" artist="Katerina Limpitsouni" source="https://undraw.co/"><g transform="translate(-513.693 -269.597)"><ellipse cx="453.45" cy="18.383" rx="453.45" ry="18.383" transform="translate(513.693 785.144)" fill="#e6e6e6"/><g transform="translate(1238.521 289.23)"><circle cx="53.106" cy="53.106" r="53.106" transform="translate(0)" fill="#ff6584"/><circle cx="115.404" cy="115.404" r="115.404" transform="translate(4.364 53.106)" fill="#2e8555"/><path d="M15.295,364.981l7.576-256.522L0,69.521l23.078,31.928L26.075,0,28.5,68.705l25.037-34.64L28.761,76.241,38.935,364.981Z" transform="translate(91.959 151.132)" fill="#3f3d56"/></g><path d="M0,284.745C0,175.422,81.6,85.156,187.221,71.539v-37.7c-21.482-2.874-36.307-8.979-36.307-16.047C150.914,7.968,179.6,0,214.981,0S279.05,7.968,279.05,17.8c0,7.066-14.821,13.171-36.3,16.046v37.7C348.363,85.155,429.97,175.422,429.97,284.745c0,118.732-96.255,214.982-214.983,214.982S0,403.476,0,284.745Z" transform="translate(767.532 305.939)" fill="#090814"/><circle cx="197.186" cy="197.186" r="197.186" transform="translate(785.331 393.498)" fill="#fff"/><circle cx="26.339" cy="26.339" r="26.339" transform="translate(955.465 565.057)" fill="#3f3d56"/><path d="M5.695,0A5.7,5.7,0,0,1,11.39,5.695v9.966a5.695,5.695,0,0,1-11.39,0V5.695A5.7,5.7,0,0,1,5.695,0Z" transform="translate(976.11 403.465)" fill="#3f3d56"/><path d="M5.695,0A5.7,5.7,0,0,1,11.39,5.695v9.966a5.695,5.695,0,0,1-11.39,0V5.695A5.7,5.7,0,0,1,5.695,0Z" transform="translate(976.11 757.971)" fill="#3f3d56"/><path d="M5.695,0A5.7,5.7,0,0,1,11.39,5.695v9.966a5.695,5.695,0,0,1-11.39,0V5.695A5.7,5.7,0,0,1,5.695,0Z" transform="translate(815.229 585.701) rotate(90)" fill="#3f3d56"/><path d="M5.695,0A5.7,5.7,0,0,1,11.39,5.695v9.966a5.695,5.695,0,0,1-11.39,0V5.695A5.7,5.7,0,0,1,5.695,0Z" transform="translate(1169.736 585.701) rotate(90)" fill="#3f3d56"/><path d="M0,22.257,9.734,0,131.7,67.549Z" transform="translate(977.458 577.315) rotate(19)" fill="#3f3d56"/><circle cx="5.106" cy="5.106" r="5.106" transform="translate(1415.086 589.443)" fill="#e6e6e6"/><g transform="translate(546.255 269.597)"><path d="M15.295,364.987,22.867,108.46,0,69.521,23.073,101.45,26.069,0,28.49,68.71,53.529,34.068,28.755,76.252,38.931,364.987Z" transform="translate(72.392 171.146)" fill="#3f3d56"/><path d="M1045.422,222.647a45.627,45.627,0,0,0-89.522-9.62c-.553-.02-1.105-.042-1.663-.042a45.636,45.636,0,0,0-43.776,32.764,32.246,32.246,0,0,0-38.265,9.525h142.327a30.863,30.863,0,0,0,30.931-31.954Q1045.44,222.984,1045.422,222.647Z" transform="translate(-872.196 -179.594)" fill="#e6e6e6"/><circle cx="12.255" cy="12.255" r="12.255" transform="translate(41.985 114.569)" fill="#e6e6e6"/><circle cx="10.204" cy="10.204" r="10.204" transform="translate(81.041 87.726)" fill="#e6e6e6"/><circle cx="12.255" cy="12.255" r="12.255" transform="translate(128.794 141.122)" fill="#e6e6e6"/><circle cx="12.255" cy="12.255" r="12.255" transform="translate(35.858 197.293)" fill="#e6e6e6"/><circle cx="12.255" cy="12.255" r="12.255" transform="translate(128.794 267.761)" fill="#e6e6e6"/><path d="M992.351,685.493c0-.133.02-.263.02-.4a12.237,12.237,0,0,0-17.349-11.137,12.223,12.223,0,0,0-21.275,10.125c-.062,0-.123-.009-.185-.009a12.255,12.255,0,1,0,7.49,21.94,12.249,12.249,0,0,0,21.06,1.243,12.245,12.245,0,1,0,10.238-21.766Z" transform="translate(-870.726 -169.165)" fill="#e6e6e6"/><circle cx="5.106" cy="5.106" r="5.106" transform="translate(147.177 225.888)" fill="#e6e6e6"/><circle cx="5.106" cy="5.106" r="5.106" transform="translate(114.496 103.335)" fill="#e6e6e6"/><circle cx="5.106" cy="5.106" r="5.106" transform="translate(97.134 229.974)" fill="#e6e6e6"/><circle cx="5.106" cy="5.106" r="5.106" transform="translate(101.219 224.867)" fill="#e6e6e6"/><circle cx="5.106" cy="5.106" r="5.106" transform="translate(104.283 219.761)" fill="#e6e6e6"/><circle cx="5.106" cy="5.106" r="5.106" transform="translate(92.028 262.654)" fill="#e6e6e6"/><circle cx="5.106" cy="5.106" r="5.106" transform="translate(58.326 322.91)" fill="#e6e6e6"/><circle cx="5.106" cy="5.106" r="5.106" transform="translate(64.453 165.633)" fill="#e6e6e6"/><circle cx="5.106" cy="5.106" r="5.106" transform="translate(87.943 257.548)" fill="#e6e6e6"/><circle cx="5.106" cy="5.106" r="5.106" transform="translate(82.836 249.378)" fill="#e6e6e6"/></g><g transform="translate(1038.552 481.564)"><path d="M0,4.291S6.354,15.938,6.764,23.749A16.628,16.628,0,1,0,26.809,19L21.823,0Z" transform="translate(89.512 61.179) rotate(180)" fill="#ed9da0"/><g transform="translate(37.769 272.973)"><path d="M84.913,448.6H71.771L65.52,397.914h19.4Z" transform="translate(-39.264 -397.914)" fill="#ed9da0"/><path d="M62.309,457.655h0a11.284,11.284,0,0,0-.625,3.715h0a4.46,4.46,0,0,0,4.46,4.46h40.7a3.043,3.043,0,0,0,3.043-3.043v-1.694s2.013-5.092-2.132-11.369c0,0-5.152,4.915-12.849-2.783l-2.27-4.112L76.2,454.845l-9.108,1.121c-1.993.245-3.759-.038-4.784,1.688Z" transform="translate(-61.684 -407.263)" fill="#2f2e41"/></g><path d="M52.121,268.946,70.229,392.171H92.948l-3.021-70.34-1.59-36.985,4.611-17.6a78.627,78.627,0,0,0,3.873-8.657c2-5.353,3.573-11.77,1.232-14.813-.861-1.122-3.1-1.952-6.143-2.571a63.575,63.575,0,0,0-6.36-.905C72.115,238.966,53,239.8,53,239.8l-.486,16.032-.269,8.952-.128,4.165Z" transform="translate(-5.192 -91.977)" fill="#2f2e41"/><g transform="translate(61.782 267.487)"><path d="M62.849,441.136l-13,1.91L36.29,393.806l19.189-2.82Z" transform="translate(-18.064 -390.986)" fill="#ed9da0"/><path d="M32.37,457.2h0a11.283,11.283,0,0,0-.078,3.766h0a4.46,4.46,0,0,0,5.062,3.764l40.264-5.92a3.043,3.043,0,0,0,2.568-3.453l-.246-1.676s1.251-5.331-3.763-10.938c0,0-4.382,5.612-13.117-.884l-2.844-3.738L45.706,452.4l-8.848,2.434c-1.936.533-3.725.509-4.488,2.366h0Z" transform="translate(-32.173 -400.797)" fill="#2f2e41"/></g><path d="M35.181,247.592l2.484,21.39,13.545,45.074,22.3,74.207,22.475-3.3L75.81,279.448l2-18.092s.65-1.8,1.4-4.431c1.48-5.209,3.336-13.691,1.294-18.018a5.058,5.058,0,0,0-1.05-1.512c-.8-.779-2.436-1.252-4.623-1.5-9.142-1.033-27.968,1.922-36.346,3.373l-3.3,8.327Z" transform="translate(11.464 -91.173)" fill="#2f2e41"/><path d="M74.666,122.158s-23.832,25.4-24.684,31.124,4.431,32.449,4.431,32.449l3.8,33.018,44.718-6.8s-8.586-29.693-10.375-31.482,13.952-25.042,13.952-37.563-7.513-22.538-7.513-22.538l-24.326,1.789Z" transform="translate(-10.707 -67.172)" fill="#2e8555"/><path d="M57.7,112.078s-2.488-19.689-2.929-25.414S46.246,72,46.246,72l-5.726,4.624s-4.845,0-1.541-7.047a14.2,14.2,0,0,1,9.469-8.148s.661-9.249,12.112-8.148a22.05,22.05,0,0,1,16.516,10.35S79.743,58.238,85,60.548s6.166,11.066,3.744,14.975-9.754,1.1-9.754,1.1,3.809,1.1,2.487,6.386,17.4,29.288,8.808,31.931-27.747,9.029-29.949,4.845a25.038,25.038,0,0,1-2.643-7.707Z" transform="translate(12.798 -53.189)" fill="#2f2e41"/><path d="M69.7,249.309c-3.174-2.636-2.389-8.817,1.754-13.8a16.227,16.227,0,0,1,6.087-4.656l2.419-2.839,31.2-39.778s17.135-39.454,22.254-43.744a12.158,12.158,0,0,1,11.2-2.13l4.782,5.815-29.03,55.13L90.449,233.931l-4.039,4.282a16.226,16.226,0,0,1-3.46,6.838c-4.143,4.988-10.074,6.894-13.248,4.258Z" transform="translate(-67.753 -71.636)" fill="#ed9da0"/><path d="M99.526,138.639s-7.639,39.642-16.332,45.486L65.872,170.618s-1.516-.065,1.305-3.252,2.1-10.03,2.1-10.03-1.269,1.643,1.493-.638.191-17.961.191-17.961l28.566-.1Z" transform="translate(-16.062 -70.975)" fill="#2e8555"/></g></g></svg>